<mxfile host="app.diagrams.net" agent="Mozilla/5.0 (X11; Linux x86_64) AppleWebKit/537.36 (KHTML, like Gecko) Chrome/132.0.0.0 Safari/537.36" version="26.0.10">
  <diagram name="Page-1" id="JZ3S5Ye-GI_4TexQTW0n">
    <mxGraphModel dx="831" dy="535" grid="1" gridSize="10" guides="1" tooltips="1" connect="1" arrows="1" fold="1" page="1" pageScale="1" pageWidth="827" pageHeight="1169" math="0" shadow="0">
      <root>
        <mxCell id="0" />
        <mxCell id="1" parent="0" />
        <mxCell id="hvnJovZW_8yypT702JhZ-1" value="process" style="rounded=0;whiteSpace=wrap;html=1;fillColor=#186781;fontColor=#ffffff;strokeColor=#006EAF;fontSize=15;fontStyle=1" parent="1" vertex="1">
          <mxGeometry x="360" y="370" width="120" height="60" as="geometry" />
        </mxCell>
        <mxCell id="hvnJovZW_8yypT702JhZ-2" value="Entrée" style="text;html=1;align=right;verticalAlign=middle;whiteSpace=wrap;rounded=0;fontSize=13;fontStyle=1" parent="1" vertex="1">
          <mxGeometry x="257" y="385" width="60" height="30" as="geometry" />
        </mxCell>
        <mxCell id="hvnJovZW_8yypT702JhZ-3" value="Sortie" style="text;html=1;align=left;verticalAlign=middle;whiteSpace=wrap;rounded=0;fontSize=13;fontStyle=1" parent="1" vertex="1">
          <mxGeometry x="523" y="385" width="60" height="30" as="geometry" />
        </mxCell>
        <mxCell id="hvnJovZW_8yypT702JhZ-4" value="Erreur" style="text;html=1;align=center;verticalAlign=middle;whiteSpace=wrap;rounded=0;fontSize=13;fontStyle=1" parent="1" vertex="1">
          <mxGeometry x="390" y="466" width="60" height="30" as="geometry" />
        </mxCell>
        <mxCell id="hvnJovZW_8yypT702JhZ-5" value="" style="shape=flexArrow;endArrow=classic;html=1;rounded=0;entryX=0;entryY=0.5;entryDx=0;entryDy=0;endWidth=10.804597701149426;endSize=4.496551724137931;fillColor=#249AC2;strokeColor=#186781;fontSize=13;fontStyle=1" parent="1" target="hvnJovZW_8yypT702JhZ-1" edge="1">
          <mxGeometry width="50" height="50" relative="1" as="geometry">
            <mxPoint x="320" y="400" as="sourcePoint" />
            <mxPoint x="360" y="395" as="targetPoint" />
          </mxGeometry>
        </mxCell>
        <mxCell id="hvnJovZW_8yypT702JhZ-6" value="" style="shape=flexArrow;endArrow=classic;html=1;rounded=0;entryX=0;entryY=0.5;entryDx=0;entryDy=0;endWidth=10.804597701149426;endSize=4.496551724137931;strokeColor=#186781;align=center;verticalAlign=middle;fontFamily=Helvetica;fontSize=13;fontColor=default;labelBackgroundColor=default;fillColor=#249AC2;fontStyle=1" parent="1" edge="1">
          <mxGeometry width="50" height="50" relative="1" as="geometry">
            <mxPoint x="482" y="399.89" as="sourcePoint" />
            <mxPoint x="522" y="399.89" as="targetPoint" />
          </mxGeometry>
        </mxCell>
        <mxCell id="hvnJovZW_8yypT702JhZ-7" value="" style="shape=flexArrow;endArrow=classic;html=1;rounded=0;entryX=0.5;entryY=0;entryDx=0;entryDy=0;endWidth=10.804597701149426;endSize=4.496551724137931;fillColor=#e51400;strokeColor=#B20000;fontSize=13;fontStyle=1" parent="1" edge="1">
          <mxGeometry width="50" height="50" relative="1" as="geometry">
            <mxPoint x="420" y="432" as="sourcePoint" />
            <mxPoint x="420" y="472" as="targetPoint" />
          </mxGeometry>
        </mxCell>
        <mxCell id="hvnJovZW_8yypT702JhZ-8" value="process" style="rounded=0;whiteSpace=wrap;html=1;fillColor=#186781;fontColor=#ffffff;strokeColor=#006EAF;fontSize=15;fontStyle=1" parent="1" vertex="1">
          <mxGeometry x="665" y="370" width="120" height="60" as="geometry" />
        </mxCell>
        <mxCell id="hvnJovZW_8yypT702JhZ-9" value="&amp;nbsp;|&amp;nbsp; Entrée" style="text;html=1;align=right;verticalAlign=middle;whiteSpace=wrap;rounded=0;fontSize=13;fontStyle=1" parent="1" vertex="1">
          <mxGeometry x="562" y="385" width="60" height="30" as="geometry" />
        </mxCell>
        <mxCell id="hvnJovZW_8yypT702JhZ-10" value="Sortie" style="text;html=1;align=left;verticalAlign=middle;whiteSpace=wrap;rounded=0;fontSize=13;fontStyle=1" parent="1" vertex="1">
          <mxGeometry x="826" y="385" width="60" height="30" as="geometry" />
        </mxCell>
        <mxCell id="hvnJovZW_8yypT702JhZ-11" value="Erreur" style="text;html=1;align=center;verticalAlign=middle;whiteSpace=wrap;rounded=0;fontSize=13;fontStyle=1" parent="1" vertex="1">
          <mxGeometry x="695" y="466" width="60" height="30" as="geometry" />
        </mxCell>
        <mxCell id="hvnJovZW_8yypT702JhZ-12" value="" style="shape=flexArrow;endArrow=classic;html=1;rounded=0;entryX=0;entryY=0.5;entryDx=0;entryDy=0;endWidth=10.804597701149426;endSize=4.496551724137931;fillColor=#249AC2;strokeColor=#186781;fontSize=13;fontStyle=1" parent="1" target="hvnJovZW_8yypT702JhZ-8" edge="1">
          <mxGeometry width="50" height="50" relative="1" as="geometry">
            <mxPoint x="625" y="400" as="sourcePoint" />
            <mxPoint x="665" y="395" as="targetPoint" />
          </mxGeometry>
        </mxCell>
        <mxCell id="hvnJovZW_8yypT702JhZ-13" value="" style="shape=flexArrow;endArrow=classic;html=1;rounded=0;entryX=0;entryY=0.5;entryDx=0;entryDy=0;endWidth=10.804597701149426;endSize=4.496551724137931;strokeColor=#186781;align=center;verticalAlign=middle;fontFamily=Helvetica;fontSize=13;fontColor=default;labelBackgroundColor=default;fillColor=#249AC2;fontStyle=1" parent="1" edge="1">
          <mxGeometry width="50" height="50" relative="1" as="geometry">
            <mxPoint x="787" y="399.89" as="sourcePoint" />
            <mxPoint x="827" y="399.89" as="targetPoint" />
          </mxGeometry>
        </mxCell>
        <mxCell id="hvnJovZW_8yypT702JhZ-14" value="" style="shape=flexArrow;endArrow=classic;html=1;rounded=0;entryX=0.5;entryY=0;entryDx=0;entryDy=0;endWidth=10.804597701149426;endSize=4.496551724137931;fillColor=#e51400;strokeColor=#B20000;fontSize=13;fontStyle=1" parent="1" edge="1">
          <mxGeometry width="50" height="50" relative="1" as="geometry">
            <mxPoint x="725" y="432" as="sourcePoint" />
            <mxPoint x="725" y="472" as="targetPoint" />
          </mxGeometry>
        </mxCell>
        <mxCell id="hvnJovZW_8yypT702JhZ-16" value="" style="html=1;shadow=0;dashed=0;align=center;verticalAlign=middle;shape=mxgraph.arrows2.jumpInArrow;dy=5.97;dx=23.23;arrowHead=31.6;rotation=41;fillColor=#1ba1e2;fontColor=#ffffff;strokeColor=#006EAF;" parent="1" vertex="1">
          <mxGeometry x="530" y="320" width="100" height="100" as="geometry" />
        </mxCell>
        <mxCell id="hvnJovZW_8yypT702JhZ-18" value="|" style="text;html=1;align=center;verticalAlign=middle;whiteSpace=wrap;rounded=0;fontSize=13;fontStyle=1" parent="1" vertex="1">
          <mxGeometry x="540" y="346" width="60" height="30" as="geometry" />
        </mxCell>
        <mxCell id="1OySk-I65w4Xt_N2Qt_h-1" value="process" style="rounded=0;whiteSpace=wrap;html=1;fillColor=#186781;fontColor=#ffffff;strokeColor=#006EAF;fontSize=15;fontStyle=1" vertex="1" parent="1">
          <mxGeometry x="293" y="590" width="120" height="60" as="geometry" />
        </mxCell>
        <mxCell id="1OySk-I65w4Xt_N2Qt_h-2" value="Entrée (0)" style="text;html=1;align=right;verticalAlign=middle;whiteSpace=wrap;rounded=0;fontSize=13;fontStyle=1" vertex="1" parent="1">
          <mxGeometry x="180" y="605" width="70" height="30" as="geometry" />
        </mxCell>
        <mxCell id="1OySk-I65w4Xt_N2Qt_h-3" value="Sortie (1)" style="text;html=1;align=left;verticalAlign=middle;whiteSpace=wrap;rounded=0;fontSize=13;fontStyle=1" vertex="1" parent="1">
          <mxGeometry x="456" y="605" width="60" height="30" as="geometry" />
        </mxCell>
        <mxCell id="1OySk-I65w4Xt_N2Qt_h-4" value="Erreur (2)" style="text;html=1;align=center;verticalAlign=middle;whiteSpace=wrap;rounded=0;fontSize=13;fontStyle=1" vertex="1" parent="1">
          <mxGeometry x="321.5" y="690" width="63" height="26" as="geometry" />
        </mxCell>
        <mxCell id="1OySk-I65w4Xt_N2Qt_h-5" value="" style="shape=flexArrow;endArrow=classic;html=1;rounded=0;entryX=0;entryY=0.5;entryDx=0;entryDy=0;endWidth=10.804597701149426;endSize=4.496551724137931;fillColor=#249AC2;strokeColor=#186781;fontSize=13;fontStyle=1" edge="1" parent="1" target="1OySk-I65w4Xt_N2Qt_h-1">
          <mxGeometry width="50" height="50" relative="1" as="geometry">
            <mxPoint x="253" y="620" as="sourcePoint" />
            <mxPoint x="293" y="615" as="targetPoint" />
          </mxGeometry>
        </mxCell>
        <mxCell id="1OySk-I65w4Xt_N2Qt_h-6" value="" style="shape=flexArrow;endArrow=classic;html=1;rounded=0;entryX=0;entryY=0.5;entryDx=0;entryDy=0;endWidth=10.804597701149426;endSize=4.496551724137931;strokeColor=#186781;align=center;verticalAlign=middle;fontFamily=Helvetica;fontSize=13;fontColor=default;labelBackgroundColor=default;fillColor=#249AC2;fontStyle=1" edge="1" parent="1">
          <mxGeometry width="50" height="50" relative="1" as="geometry">
            <mxPoint x="415" y="619.89" as="sourcePoint" />
            <mxPoint x="455" y="619.89" as="targetPoint" />
          </mxGeometry>
        </mxCell>
        <mxCell id="1OySk-I65w4Xt_N2Qt_h-7" value="" style="shape=flexArrow;endArrow=classic;html=1;rounded=0;entryX=0.5;entryY=0;entryDx=0;entryDy=0;endWidth=10.804597701149426;endSize=4.496551724137931;fillColor=#e51400;strokeColor=#B20000;fontSize=13;fontStyle=1" edge="1" parent="1">
          <mxGeometry width="50" height="50" relative="1" as="geometry">
            <mxPoint x="353" y="652" as="sourcePoint" />
            <mxPoint x="353" y="692" as="targetPoint" />
          </mxGeometry>
        </mxCell>
        <mxCell id="1OySk-I65w4Xt_N2Qt_h-8" value="cat" style="rounded=0;whiteSpace=wrap;html=1;fillColor=#186781;fontColor=#ffffff;strokeColor=#006EAF;fontSize=15;fontStyle=1" vertex="1" parent="1">
          <mxGeometry x="300" y="750" width="120" height="60" as="geometry" />
        </mxCell>
        <mxCell id="1OySk-I65w4Xt_N2Qt_h-10" value="&lt;div&gt;# Standard host addresses&lt;/div&gt;&lt;div&gt;127.0.0.1&amp;nbsp; localhost&lt;/div&gt;&lt;div&gt;127.0.1.1&amp;nbsp; ece-sys-vm&lt;/div&gt;" style="text;html=1;align=left;verticalAlign=middle;whiteSpace=wrap;rounded=0;fontSize=13;fontStyle=0" vertex="1" parent="1">
          <mxGeometry x="463" y="765" width="167" height="30" as="geometry" />
        </mxCell>
        <mxCell id="1OySk-I65w4Xt_N2Qt_h-12" value="" style="shape=flexArrow;endArrow=classic;html=1;rounded=0;entryX=0;entryY=0.5;entryDx=0;entryDy=0;endWidth=10.804597701149426;endSize=4.496551724137931;fillColor=#249AC2;strokeColor=#186781;fontSize=13;fontStyle=1" edge="1" parent="1" target="1OySk-I65w4Xt_N2Qt_h-8">
          <mxGeometry width="50" height="50" relative="1" as="geometry">
            <mxPoint x="260" y="780" as="sourcePoint" />
            <mxPoint x="300" y="775" as="targetPoint" />
          </mxGeometry>
        </mxCell>
        <mxCell id="1OySk-I65w4Xt_N2Qt_h-13" value="" style="shape=flexArrow;endArrow=classic;html=1;rounded=0;entryX=0;entryY=0.5;entryDx=0;entryDy=0;endWidth=10.804597701149426;endSize=4.496551724137931;strokeColor=#186781;align=center;verticalAlign=middle;fontFamily=Helvetica;fontSize=13;fontColor=default;labelBackgroundColor=default;fillColor=#249AC2;fontStyle=1" edge="1" parent="1">
          <mxGeometry width="50" height="50" relative="1" as="geometry">
            <mxPoint x="422" y="779.89" as="sourcePoint" />
            <mxPoint x="462" y="779.89" as="targetPoint" />
          </mxGeometry>
        </mxCell>
        <mxCell id="1OySk-I65w4Xt_N2Qt_h-14" value="" style="shape=flexArrow;endArrow=classic;html=1;rounded=0;entryX=0.5;entryY=0;entryDx=0;entryDy=0;endWidth=10.804597701149426;endSize=4.496551724137931;fillColor=#e51400;strokeColor=#B20000;fontSize=13;fontStyle=1" edge="1" parent="1">
          <mxGeometry width="50" height="50" relative="1" as="geometry">
            <mxPoint x="360" y="812" as="sourcePoint" />
            <mxPoint x="360" y="852" as="targetPoint" />
          </mxGeometry>
        </mxCell>
        <mxCell id="1OySk-I65w4Xt_N2Qt_h-15" value="cat" style="rounded=0;whiteSpace=wrap;html=1;fillColor=#186781;fontColor=#ffffff;strokeColor=#006EAF;fontSize=15;fontStyle=1" vertex="1" parent="1">
          <mxGeometry x="290" y="930" width="120" height="60" as="geometry" />
        </mxCell>
        <mxCell id="1OySk-I65w4Xt_N2Qt_h-16" value="cat: /etc/shadow: Permission non accordée" style="text;html=1;align=center;verticalAlign=middle;whiteSpace=wrap;rounded=0;fontSize=13;fontStyle=0" vertex="1" parent="1">
          <mxGeometry x="226.5" y="1030" width="267" height="30" as="geometry" />
        </mxCell>
        <mxCell id="1OySk-I65w4Xt_N2Qt_h-17" value="" style="shape=flexArrow;endArrow=classic;html=1;rounded=0;entryX=0;entryY=0.5;entryDx=0;entryDy=0;endWidth=10.804597701149426;endSize=4.496551724137931;fillColor=#249AC2;strokeColor=#186781;fontSize=13;fontStyle=1" edge="1" parent="1" target="1OySk-I65w4Xt_N2Qt_h-15">
          <mxGeometry width="50" height="50" relative="1" as="geometry">
            <mxPoint x="250" y="960" as="sourcePoint" />
            <mxPoint x="290" y="955" as="targetPoint" />
          </mxGeometry>
        </mxCell>
        <mxCell id="1OySk-I65w4Xt_N2Qt_h-18" value="" style="shape=flexArrow;endArrow=classic;html=1;rounded=0;entryX=0;entryY=0.5;entryDx=0;entryDy=0;endWidth=10.804597701149426;endSize=4.496551724137931;strokeColor=#186781;align=center;verticalAlign=middle;fontFamily=Helvetica;fontSize=13;fontColor=default;labelBackgroundColor=default;fillColor=#249AC2;fontStyle=1" edge="1" parent="1">
          <mxGeometry width="50" height="50" relative="1" as="geometry">
            <mxPoint x="412" y="959.89" as="sourcePoint" />
            <mxPoint x="452" y="959.89" as="targetPoint" />
          </mxGeometry>
        </mxCell>
        <mxCell id="1OySk-I65w4Xt_N2Qt_h-19" value="" style="shape=flexArrow;endArrow=classic;html=1;rounded=0;entryX=0.5;entryY=0;entryDx=0;entryDy=0;endWidth=10.804597701149426;endSize=4.496551724137931;fillColor=#e51400;strokeColor=#B20000;fontSize=13;fontStyle=1" edge="1" parent="1">
          <mxGeometry width="50" height="50" relative="1" as="geometry">
            <mxPoint x="350" y="992" as="sourcePoint" />
            <mxPoint x="350" y="1032" as="targetPoint" />
          </mxGeometry>
        </mxCell>
        <mxCell id="1OySk-I65w4Xt_N2Qt_h-20" value="nano" style="rounded=0;whiteSpace=wrap;html=1;fillColor=#186781;fontColor=#ffffff;strokeColor=#006EAF;fontSize=15;fontStyle=1" vertex="1" parent="1">
          <mxGeometry x="283" y="1130" width="120" height="60" as="geometry" />
        </mxCell>
        <mxCell id="1OySk-I65w4Xt_N2Qt_h-21" value="GNU nano 7.2&amp;nbsp; &amp;nbsp; &amp;nbsp; &amp;nbsp; &amp;nbsp; &amp;nbsp; fichier en cours d&#39;édition&lt;div style=&quot;&quot;&gt;&lt;span style=&quot;&quot;&gt;Texte que je tape au clavier |&lt;/span&gt;&lt;/div&gt;&lt;div&gt;&lt;span style=&quot;&quot;&gt;&lt;br&gt;&lt;/span&gt;&lt;/div&gt;&lt;div style=&quot;&quot;&gt;^G Aide&amp;nbsp; &amp;nbsp; &amp;nbsp; &amp;nbsp; ^O Ecrire&lt;/div&gt;&lt;div style=&quot;&quot;&gt;^X Quitter&amp;nbsp; &amp;nbsp; &amp;nbsp;^W Rechercher&lt;/div&gt;" style="text;html=1;align=left;verticalAlign=middle;whiteSpace=wrap;rounded=0;fontSize=13;fontStyle=0" vertex="1" parent="1">
          <mxGeometry x="443.25" y="1112.5" width="273.5" height="95" as="geometry" />
        </mxCell>
        <mxCell id="1OySk-I65w4Xt_N2Qt_h-22" value="" style="shape=flexArrow;endArrow=classic;html=1;rounded=0;entryX=0;entryY=0.5;entryDx=0;entryDy=0;endWidth=10.804597701149426;endSize=4.496551724137931;fillColor=#249AC2;strokeColor=#186781;fontSize=13;fontStyle=1" edge="1" parent="1" target="1OySk-I65w4Xt_N2Qt_h-20">
          <mxGeometry width="50" height="50" relative="1" as="geometry">
            <mxPoint x="243" y="1160" as="sourcePoint" />
            <mxPoint x="283" y="1155" as="targetPoint" />
          </mxGeometry>
        </mxCell>
        <mxCell id="1OySk-I65w4Xt_N2Qt_h-23" value="" style="shape=flexArrow;endArrow=classic;html=1;rounded=0;entryX=0;entryY=0.5;entryDx=0;entryDy=0;endWidth=10.804597701149426;endSize=4.496551724137931;strokeColor=#186781;align=center;verticalAlign=middle;fontFamily=Helvetica;fontSize=13;fontColor=default;labelBackgroundColor=default;fillColor=#249AC2;fontStyle=1" edge="1" parent="1">
          <mxGeometry width="50" height="50" relative="1" as="geometry">
            <mxPoint x="405" y="1159.8899999999999" as="sourcePoint" />
            <mxPoint x="445" y="1159.8899999999999" as="targetPoint" />
          </mxGeometry>
        </mxCell>
        <mxCell id="1OySk-I65w4Xt_N2Qt_h-24" value="" style="shape=flexArrow;endArrow=classic;html=1;rounded=0;entryX=0.5;entryY=0;entryDx=0;entryDy=0;endWidth=10.804597701149426;endSize=4.496551724137931;fillColor=#e51400;strokeColor=#B20000;fontSize=13;fontStyle=1" edge="1" parent="1">
          <mxGeometry width="50" height="50" relative="1" as="geometry">
            <mxPoint x="343" y="1192" as="sourcePoint" />
            <mxPoint x="343" y="1232" as="targetPoint" />
          </mxGeometry>
        </mxCell>
        <mxCell id="1OySk-I65w4Xt_N2Qt_h-25" value="Texte que je tape au clavier" style="text;html=1;align=right;verticalAlign=middle;whiteSpace=wrap;rounded=0;fontSize=13;fontStyle=0" vertex="1" parent="1">
          <mxGeometry x="60" y="1145" width="166.5" height="30" as="geometry" />
        </mxCell>
        <mxCell id="1OySk-I65w4Xt_N2Qt_h-26" value="process" style="rounded=0;whiteSpace=wrap;html=1;fillColor=#186781;fontColor=#ffffff;strokeColor=#006EAF;fontSize=15;fontStyle=1" vertex="1" parent="1">
          <mxGeometry x="295" y="1340" width="120" height="60" as="geometry" />
        </mxCell>
        <mxCell id="1OySk-I65w4Xt_N2Qt_h-27" value="&lt;font style=&quot;font-size: 14px;&quot;&gt;&amp;lt; &lt;/font&gt;&lt;span style=&quot;font-weight: normal;&quot;&gt;Entrée (0)&lt;/span&gt;" style="text;html=1;align=right;verticalAlign=middle;whiteSpace=wrap;rounded=0;fontSize=13;fontStyle=1" vertex="1" parent="1">
          <mxGeometry x="170" y="1355" width="82" height="30" as="geometry" />
        </mxCell>
        <mxCell id="1OySk-I65w4Xt_N2Qt_h-28" value="&lt;span style=&quot;font-weight: normal;&quot;&gt;Sortie (1) &lt;/span&gt;&lt;font style=&quot;font-size: 14px;&quot;&gt;&amp;gt;&lt;/font&gt;" style="text;html=1;align=left;verticalAlign=middle;whiteSpace=wrap;rounded=0;fontSize=13;fontStyle=1" vertex="1" parent="1">
          <mxGeometry x="458" y="1355" width="72" height="30" as="geometry" />
        </mxCell>
        <mxCell id="1OySk-I65w4Xt_N2Qt_h-29" value="&lt;span style=&quot;font-weight: normal;&quot;&gt;Erreur (2)&lt;/span&gt;&lt;div&gt;&lt;font style=&quot;font-size: 14px;&quot;&gt;2&amp;gt;&lt;/font&gt;&lt;/div&gt;" style="text;html=1;align=center;verticalAlign=middle;whiteSpace=wrap;rounded=0;fontSize=13;fontStyle=1" vertex="1" parent="1">
          <mxGeometry x="323.5" y="1441" width="63" height="30" as="geometry" />
        </mxCell>
        <mxCell id="1OySk-I65w4Xt_N2Qt_h-30" value="" style="shape=flexArrow;endArrow=classic;html=1;rounded=0;entryX=0;entryY=0.5;entryDx=0;entryDy=0;endWidth=10.804597701149426;endSize=4.496551724137931;fillColor=#249AC2;strokeColor=#186781;fontSize=13;fontStyle=1" edge="1" parent="1" target="1OySk-I65w4Xt_N2Qt_h-26">
          <mxGeometry width="50" height="50" relative="1" as="geometry">
            <mxPoint x="255" y="1370" as="sourcePoint" />
            <mxPoint x="295" y="1365" as="targetPoint" />
          </mxGeometry>
        </mxCell>
        <mxCell id="1OySk-I65w4Xt_N2Qt_h-31" value="" style="shape=flexArrow;endArrow=classic;html=1;rounded=0;entryX=0;entryY=0.5;entryDx=0;entryDy=0;endWidth=10.804597701149426;endSize=4.496551724137931;strokeColor=#186781;align=center;verticalAlign=middle;fontFamily=Helvetica;fontSize=13;fontColor=default;labelBackgroundColor=default;fillColor=#249AC2;fontStyle=1" edge="1" parent="1">
          <mxGeometry width="50" height="50" relative="1" as="geometry">
            <mxPoint x="417" y="1369.8899999999999" as="sourcePoint" />
            <mxPoint x="457" y="1369.8899999999999" as="targetPoint" />
          </mxGeometry>
        </mxCell>
        <mxCell id="1OySk-I65w4Xt_N2Qt_h-32" value="" style="shape=flexArrow;endArrow=classic;html=1;rounded=0;entryX=0.5;entryY=0;entryDx=0;entryDy=0;endWidth=10.804597701149426;endSize=4.496551724137931;fillColor=#e51400;strokeColor=#B20000;fontSize=13;fontStyle=1" edge="1" parent="1">
          <mxGeometry width="50" height="50" relative="1" as="geometry">
            <mxPoint x="355" y="1402" as="sourcePoint" />
            <mxPoint x="355" y="1442" as="targetPoint" />
          </mxGeometry>
        </mxCell>
        <mxCell id="1OySk-I65w4Xt_N2Qt_h-33" value="" style="shape=note;whiteSpace=wrap;html=1;backgroundOutline=1;darkOpacity=0.05;size=13;" vertex="1" parent="1">
          <mxGeometry x="143" y="1350" width="30" height="40" as="geometry" />
        </mxCell>
        <mxCell id="1OySk-I65w4Xt_N2Qt_h-34" value="" style="shape=note;whiteSpace=wrap;html=1;backgroundOutline=1;darkOpacity=0.05;size=13;" vertex="1" parent="1">
          <mxGeometry x="532" y="1350" width="30" height="40" as="geometry" />
        </mxCell>
        <mxCell id="1OySk-I65w4Xt_N2Qt_h-35" value="" style="shape=note;whiteSpace=wrap;html=1;backgroundOutline=1;darkOpacity=0.05;size=13;" vertex="1" parent="1">
          <mxGeometry x="340" y="1473" width="30" height="40" as="geometry" />
        </mxCell>
      </root>
    </mxGraphModel>
  </diagram>
</mxfile>
